Simulation
nRows=34
nColumns=15
endheader
time  TH_x TH_y TH_z SC_y  SC_z  SC_x  AC_y  AC_z  AC_x  GH_y  GH_z  GH_yy  EL_x  PS_y
2.6910411985018725  0.000000  0.000000  0.000000  -23.407322051756992  4.393039887986376  -3.0309766701115914  56.79191214965285  8.051274828057018  5.226136977609698  -3.0305221757240486  4.189827057120596  31.889351332053764  15.891788135202079  120.000000
2.7312059925093632  0.000000  0.000000  0.000000  -23.154685733068927  4.377130532951148  -2.993573256297103  57.35822637986203  8.419562621612792  5.603330931543831  6.95655928856268  2.782422308016957  23.89579342642112  16.639864331410294  120.000000
2.771370786516854  0.000000  0.000000  0.000000  -23.08342756619787  4.439146642174312  -2.862658915720037  57.8286315950942  8.799699222782914  5.923954252966606  32.18234210462062  1.763061989352197  0.3864004856378586  17.301819901480787  120.000000
2.8115355805243447  0.000000  0.000000  0.000000  -23.161606544452372  4.56501513350457  -2.666153174314616  58.194404607379006  9.176422947593055  6.181065517195161  77.19510645277774  1.5996297026294728  -43.18336175405656  17.852965037198334  120.000000
2.851700374531835  0.000000  0.000000  0.000000  -23.35153189329844  4.7388714669627925  -2.4282761663465133  58.453794807755656  9.537280948693603  6.374378916391328  107.10204272102347  2.2701817479115816  -71.90092854205696  18.27887538453281  120.000000
2.8918651685393257  0.000000  0.000000  0.000000  -23.61801225156041  4.944441512693159  -2.167965667803025  58.61190167704235  9.872402346387496  6.507904797201336  120.07090579596255  3.167531456226828  -83.90430159076816  18.575635190754586  120.000000
2.9320299625468165  0.000000  0.000000  0.000000  -23.929463794274334  5.1672316909009925  -1.898986665163323  58.67906835748847  10.174266505314593  6.5888049371346815  126.60434296267822  4.049525011941158  -89.66066105322291  18.748907418691314  120.000000
2.972194756554307  0.000000  0.000000  0.000000  -24.259188036929903  5.394785242158331  -1.6305964520264602  58.669206164231895  10.437170698524803  6.6255654757454625  130.62620824322008  4.851892712955609  -93.0572369721007  18.81209079405601  120.000000
3.012359550561798  0.000000  0.000000  0.000000  -24.586095050831133  5.616648877305293  -1.368521782860799  58.59873681946238  10.657181038297187  6.626277827555427  133.53801983754806  5.557882077537422  -95.46137999366076  18.785014221359535  120.000000
3.0525243445692882  0.000000  0.000000  0.000000  -24.89374402273869  5.824748363994414  -1.1160801474900581  58.48561390503892  10.83250778656307  6.598711688369335  135.90114217655452  6.167431614570727  -97.40480641630472  18.691308274239393  120.000000
3.092689138576779  0.000000  0.000000  0.000000  -25.170119439239674  6.013517019007888  -0.8751234949771023  58.347679413345936  10.96348433868373  6.549838252132014  137.95351485359797  6.687583433123874  -99.1011500241063  18.554948703894553  120.000000
3.1328539325842697  0.000000  0.000000  0.000000  -25.40779815298516  6.179554414356075  -0.6467619584340217  58.20063840999766  11.05179115384545  6.485580761359312  139.79614826860575  7.127994679659799  -100.63265578271516  18.397383034264976  120.000000
3.1730187265917604  0.000000  0.000000  0.000000  -25.60353376881608  6.320955573824199  -0.43189212910696234  58.05708295818086  11.099749772776123  6.410780030812165  141.47053033000458  7.49811241609992  -102.02733740645819  18.235453253911924  120.000000
3.2131835205992507  0.000000  0.000000  0.000000  -25.75755431602739  6.437146091407569  -0.23134284250795337  57.92588286911122  11.10990713153164  6.3290822963635875  142.9929700955065  7.805790660907068  -103.29256207360135  18.080331576835455  120.000000
3.2533483146067415  0.000000  0.000000  0.000000  -25.872810159536787  6.528955319350849  -0.04594534993623896  57.81238529969328  11.08483895340265  6.243067584365713  144.37085073228394  8.05662238311634  -104.43047443598628  17.93762193715266  120.000000
3.293513108614232  0.000000  0.000000  0.000000  -25.95382106989035  6.598215122925012  0.12338700388927729  57.71882599633477  11.027091841695444  6.1543273235214695  145.61053057623482  8.253868614809656  -105.44480092703581  17.80847806186381  120.000000
3.333677902621723  0.000000  0.000000  0.000000  -26.005668655941495  6.647241641131544  0.27561603520659766  57.64524948695845  10.939093837982922  6.0637260990990836  146.72002880650243  8.398880320887015  -106.34265461565036  17.691241520908857  120.000000
3.3738426966292137  0.000000  0.000000  0.000000  -26.033163345709383  6.678385105598198  0.4095531854758112  57.590218907045475  10.823030510303624  5.971873413274307  147.70968644431193  8.491711472499402  -107.13436457850521  17.583139682081814  120.000000
3.414007490636704  0.000000  0.000000  0.000000  -26.040254842422137  6.693545120835932  0.5239224777920507  57.55119705809639  10.680681294471027  5.87958353285468  148.59291381995035  8.531561358563124  -107.83367209337996  17.481602720515575  120.000000
3.4541722846441947  0.000000  0.000000  0.000000  -26.029698401309805  6.693836623936115  0.617337393849606  57.524848347412735  10.513321146399889  5.788173418034149  149.38665945245197  8.517047825895254  -108.45771488447731  17.384983618491447  120.000000
3.4943370786516854  0.000000  0.000000  0.000000  -26.002636278523635  6.679730272899625  0.6881106988762931  57.50783454055001  10.32181013333451  5.699177910399083  150.10909110946196  8.44663085526871  -109.02471320018157  17.292582443512824  120.000000
3.534501872659176  0.000000  0.000000  0.000000  -25.958610266654375  6.651374958613763  0.7343476739673951  57.497497536576475  10.106877495502216  5.613978561364376  150.7791546407575  8.31880804401313  -109.553483195959  17.204129890166026  120.000000
3.574666666666667  0.000000  0.000000  0.000000  -25.895893603719557  6.608861057453254  0.7541563189497157  57.49169110963143  9.869383117269832  5.5337029856341005  151.41827735571076  8.131827556425831  -110.06526995258723  17.11892765546385  120.000000
3.614831460674157  0.000000  0.000000  0.000000  -25.811920486267223  6.552472365290138  0.7458995817202276  57.48847999274174  9.610589212655398  5.459124423164724  152.0510019884593  7.883390272895103  -110.58475160927378  17.03481424891485  120.000000
3.654996254681648  0.000000  0.000000  0.000000  -25.703703521644403  6.482965921475822  0.7084498284048782  57.48606762447152  9.332505568160041  5.390490049321782  152.70379752565574  7.570613598993791  -111.13934906566034  16.947466412067545  120.000000
3.6951610486891386  0.000000  0.000000  0.000000  -25.568408637165593  6.40178591285233  0.6414184358152812  57.48283840455449  9.03807747791649  5.3274404711455965  153.40157090413754  7.190215337863517  -111.756441714669  16.850349746717825  120.000000
3.7353258426966294  0.000000  0.000000  0.000000  -25.403846960507064  6.310730077864016  0.5455100583335557  57.47734805393473  8.731140758903368  5.269133702281073  154.1618729172138  6.739021928075125  -112.45839916673502  16.735187365365224  120.000000
3.7754906367041197  0.000000  0.000000  0.000000  -25.2093099626502  6.211272926518012  0.42291243797211814  57.467253871704926  8.416238303302793  5.215233153392868  154.98859714748042  6.2144933425673905  -113.25700390052891  16.592701797809358  120.000000
3.8156554307116104  0.000000  0.000000  0.000000  -24.986087118030646  6.104416727284563  0.27751711088356856  57.449272050220685  8.099093876790315  5.166226184346745  155.86264463194027  5.614429605249914  -114.1448625176696  16.413584685954696  120.000000
3.855820224719101  0.000000  0.000000  0.000000  -24.736027871161134  5.9919002591977675  0.11485243364847213  57.42044239719251  7.787760257594841  5.122109045571569  156.72371818157563  4.936563669364272  -115.07742524574931  16.189643319013825  120.000000
3.895985018726592  0.000000  0.000000  0.000000  -24.461548995880452  5.8775518795893955  -0.058039849270518175  57.378038354412546  7.492982074889814  5.082148520910792  157.43177017154045  4.17854139446327  -115.9338351077749  15.914783100941316  120.000000
3.9361498127340826  0.000000  0.000000  0.000000  -24.165450354681543  5.766641737531098  -0.23316125244819605  57.31901447760763  7.2280863119872745  5.045793019026795  157.67545736070065  3.337360358917464  -116.42431737027962  15.58584652072086  120.000000
3.976314606741573  0.000000  0.000000  0.000000  -23.849126668557986  5.664921977442061  -0.40188864662011897  57.24039419695569  7.008786810186317  5.012868755759563  156.63983108545585  2.409725740587725  -115.75548675985443  15.203640225328737  120.000000
4.016479400749064  0.000000  0.000000  0.000000  -23.513439230031782  5.578943506537644  -0.5545647887160547  57.14006495241654  6.852263893196812  4.983377612057374  151.0297458970663  1.3989409490434237  -110.65134938290372  14.773921099915698  120.000000
